<svg width="42" height="42" viewBox="0 0 42 42" fill="none" xmlns="http://www.w3.org/2000/svg">
<path d="M21 3.5C11.5133 3.5 3.5 11.5133 3.5 21C3.5 30.4868 11.5133 38.5 21 38.5C30.4868 38.5 38.5 30.4868 38.5 21C38.5 11.5133 30.4868 3.5 21 3.5ZM21 12.25C24.0223 12.25 26.25 14.476 26.25 17.5C26.25 20.524 24.0223 22.75 21 22.75C17.9795 22.75 15.75 20.524 15.75 17.5C15.75 14.476 17.9795 12.25 21 12.25ZM12.0645 29.351C13.6343 27.041 16.2523 25.501 19.25 25.501H22.75C25.7495 25.501 28.3658 27.041 29.9355 29.351C27.699 31.745 24.5263 33.25 21 33.25C17.4738 33.25 14.301 31.745 12.0645 29.351Z" fill="#F5C661"/>
</svg>
