<svg width="37" height="32" viewBox="0 0 37 32" fill="none" xmlns="http://www.w3.org/2000/svg">
<g clip-path="url(#clip0_32_186)">
<path d="M29.6302 18.5786H12.3265L12.7129 20.4536H28.557C29.4661 20.4536 30.1399 21.2915 29.9384 22.1715L29.6127 23.5939C30.716 24.1255 31.4768 25.2482 31.4768 26.5473C31.4768 28.3755 29.9704 29.8546 28.1226 29.8282C26.3622 29.8031 24.9144 28.385 24.8669 26.6379C24.8409 25.6836 25.2261 24.8187 25.8588 24.2035H13.4837C14.0962 24.7992 14.4768 25.6289 14.4768 26.5473C14.4768 28.4113 12.9109 29.9124 11.0136 29.8249C9.32897 29.7473 7.95887 28.3961 7.87033 26.7243C7.80198 25.4333 8.48635 24.2953 9.52612 23.7017L5.3796 3.57855H1.25456C0.472144 3.57855 -0.162109 2.94896 -0.162109 2.1723V1.2348C-0.162109 0.458142 0.472144 -0.171448 1.25456 -0.171448H7.30662C7.97959 -0.171448 8.55966 0.298533 8.69454 0.952966L9.23558 3.57855H32.4206C33.3297 3.57855 34.0035 4.4165 33.8021 5.29646L31.0116 17.484C30.8651 18.1242 30.2917 18.5786 29.6302 18.5786ZM23.9212 9.6723H21.0879V7.32855C21.0879 6.81076 20.6651 6.39105 20.1434 6.39105H19.199C18.6774 6.39105 18.2546 6.81076 18.2546 7.32855V9.6723H15.4212C14.8996 9.6723 14.4768 10.092 14.4768 10.6098V11.5473C14.4768 12.0651 14.8996 12.4848 15.4212 12.4848H18.2546V14.8286C18.2546 15.3463 18.6774 15.7661 19.199 15.7661H20.1434C20.6651 15.7661 21.0879 15.3463 21.0879 14.8286V12.4848H23.9212C24.4429 12.4848 24.8657 12.0651 24.8657 11.5473V10.6098C24.8657 10.092 24.4429 9.6723 23.9212 9.6723Z" fill="black"/>
</g>
<defs>
<clipPath id="clip0_32_186">
<rect width="36.7568" height="31.7143" fill="white"/>
</clipPath>
</defs>
</svg>
