<svg width="20" height="19" viewBox="0 0 20 19" fill="none" xmlns="http://www.w3.org/2000/svg">
<path d="M5.35984 10.34L8.18984 7.50996L1.16984 0.499957C0.420687 1.25127 0 2.26897 0 3.32996C0 4.39095 0.420687 5.40865 1.16984 6.15996L5.35984 10.34ZM12.1398 8.52996C13.6698 9.23996 15.8198 8.73996 17.4098 7.14996C19.3198 5.23996 19.6898 2.49996 18.2198 1.02996C16.7598 -0.430043 14.0198 -0.0700425 12.0998 1.83996C10.5098 3.42996 10.0098 5.57996 10.7198 7.10996L0.959838 16.87L2.36984 18.28L9.25984 11.41L16.1398 18.29L17.5498 16.88L10.6698 9.99996L12.1398 8.52996Z" fill="white"/>
</svg>
