<svg width="18" height="18" viewBox="0 0 18 18" fill="none" xmlns="http://www.w3.org/2000/svg">
<path d="M11.3086 5.11528L11.0986 4.91528C10.5786 4.37528 10.6686 4.12528 11.1786 3.61528L13.8986 0.865283C14.7086 0.0452829 14.8586 -0.344717 15.6286 0.385283L15.8386 0.585283L11.3086 5.11528ZM11.8386 5.56528L16.2386 1.16528C16.9386 2.10528 18.5786 4.63528 17.7686 6.50528C17.0386 8.17528 16.6786 8.25528 15.7686 9.50528C13.9186 11.6153 11.5886 13.8753 9.76857 15.5753C8.50857 16.4853 8.45857 16.9053 6.76857 17.5753C4.96857 18.2853 2.36857 16.6853 1.38857 16.0153L5.78857 11.6153L6.96857 13.2353C7.30857 13.6953 8.16857 13.1753 8.76857 12.5753C9.80857 11.5253 11.9486 9.39528 12.7686 8.50528C13.3586 7.91528 13.8886 7.05528 13.4286 6.70528L11.8386 5.56528ZM0.818571 15.6153L0.608571 15.4053C-0.0714289 14.6653 0.318571 14.5053 1.12857 13.7053L3.86857 10.9853C4.37857 10.4953 4.61857 10.3853 5.13857 10.8753L5.33857 11.0853L0.818571 15.6153Z" fill="white"/>
</svg>
